<svg xmlns="http://www.w3.org/2000/svg" viewBox="0 0 32 32">
  <rect width="32" height="32" fill="#090806"/>
  <polyline points="0,26 4,26 5,25 6,24 7,23 8,21 9,19 10,17 11,15 12,13 13,11 14,10 15,9 16,8 17,9 18,10 19,11 20,13 21,15 22,17 23,19 24,21 25,23 26,24 27,25 28,26 32,26" stroke="#b30505" stroke-width="1.4" fill="none" opacity="0.95"/>
  <polyline points="0,22 5,22 6,21 7,20 8,19 9,17 10,15 11,14 12,15 13,17 14,19 15,20 16,21 17,22 32,22" stroke="#b30505" stroke-width="0.8" fill="none" opacity="0.55"/>
  <polyline points="0,28 32,28" stroke="#990202" stroke-width="0.6" fill="none" opacity="0.4"/>
</svg>
