<?xml version="1.0" encoding="UTF-8"?>
<svg id="Layer_1" xmlns="http://www.w3.org/2000/svg" version="1.1" viewBox="0 0 1920 1080">
  <!-- Generator: Adobe Illustrator 30.2.1, SVG Export Plug-In . SVG Version: 2.1.1 Build 1)  -->
  <defs>
    <style>
      .st0 {
        fill: #5b2904;
      }

      .st1 {
        fill: #014468;
      }
    </style>
  </defs>
  <g>
    <path class="st1" d="M1449.67,586.68l-29.06-3.34c-11.55-1.33-22.98-2.08-33.91-1.45.12-.15-2.48-1.45-3.38-1.54-87.62-8.91-174.11-14.05-262.25-14.25l-97.71-.22c-4.47,0-9.73-3.36-10.87-6.46-1.29-3.48-.75-9.99,1.74-12.45l33.49-33.16c7.72-7.64,16.89-13.48,24.8-22.92-.04-6.97-1.69-15.81-2.98-23.01l-7.19-39.92,139.31-80.67c1.87-1.08,7.48.62,8.86,2.11s1.78,6.49.44,8.48l-90.37,134.65,60.89,16.29,156.9,40.27,103.32,26.6c5.35,1.38,8.54,6.61,7.97,10.98Z"/>
    <path class="st1" d="M1367.44,520.3c-39.03-147.96-161.39-265.06-310.88-296.36l-8.56-29.51c-.3-1.04-.14-3.78.43-4.57.76-1.05,4.2-1.69,6-1.32,173.18,35.79,318.31,170.22,351.74,347.03-15.35-3.91-25.39-9.64-38.73-15.27Z"/>
  </g>
  <g>
    <path class="st0" d="M1062.34,427.96l7.19,39.92c1.3,7.19,2.94,16.04,2.98,23.01-7.91,9.44-17.08,15.27-24.8,22.92.29-.94,1.09-5.12.77-6.6l-40.9-194.21-30.29-148.27-3.86,158.02-1.68,195.87c-.05,5.36-2.5,10.26-6.02,13.53-9.45,8.79-33.9,32.9-45.83,33.44l-97.55,4.43c-59.87,2.72-172.69,24.49-213.37,72.3-36.35,42.72-5.81,97.06,24.85,132.95,28.24,32.35,61.63,58.19,99.39,79.12,46.58,27.63,94.98,46.51,147.17,65.14-126.88-15.89-276.62-92.32-354.56-193.33-12.96-16.8-22.93-34.87-29.11-54.73-12.15-39.07,10.99-67.96,42.54-87.17,19.89-12.11,39.89-20.83,62.7-27.01l228.61-61.98-91.12-136.18c-.89-1.32-.29-5.07.37-6.33s5.35-2.89,7.44-1.7l141.77,80.76c7.7-29.87,12.21-56.51,17.98-85.24l61.84-308.24c.55-2.75,3.73-5.87,5.6-6.5,2.13-.72,7.32,1.9,7.94,4.94l79.95,391.15Z"/>
    <path class="st0" d="M1386.69,581.89c10.93-.63,22.36.13,33.91,1.45l29.06,3.34c-.56,4.25-3.39,6.51-8.04,7.7l-83.94,21.43-83.87,19.9-150.45,35.52c12.07,20.22,25.64,37.49,39.89,56l35.6,46.23c1.28,1.66,1.72,6.19.64,7.46-6.17,7.21-71.8-32.13-84.04-38.26l-6.56-3.29-45.72-22.83-70.86,226.08c-.71,2.26-4.69,4.87-6.58,4.53-1.61-.29-4.96-2.91-5.44-4.71l-58.33-220c-4.65-17.54-18.66-30.27-32.75-40.59-39.17-28.69-104.98-47.81-153.03-50.76-34.88-2.14-66.17,7.06-100.08,21,15.09-12.77,33.17-21.35,52.78-28.45,84.99-30.73,152.88-24.99,241.65-20.14l41.2,43.74,1.46,23.96,7.02,152.24c4.15-29.94,5.52-59.84,7.17-90.74l4.92-92.52c.78-14.64,20.45-29.4,32.53-34.62,13.13-5.67,25.74-6.24,39.29-6.86l152.38-7.02,170.18-9.78Z"/>
    <path class="st0" d="M632.25,861.3c89.27,58.6,191.83,100.36,298.27,114.17,8.42,1.09,15.97,1.43,24.96,1.96,122.39,7.14,242.41-39.84,323.57-132.25,49.03-55.83,78.13-125.35,89.47-198.63l44.61-19.36c2,23.95-9.52,75.84-16.68,99.25-36.27,118.52-111.81,211.23-224.37,264.65-156.6,74.32-349.81,46.85-488.37-53.52-44.74-32.41-82.78-73-110.29-120.52,20.54,15.98,38.07,30.6,58.84,44.24Z"/>
    <path class="st0" d="M894.21,223.56c-142.84,29.25-265.75,144.09-301.29,286.41l-40.85,25.57c4.23-31.57,13.53-59.92,25.76-88.36,46.49-108.08,133.49-192.14,242.59-236.32,13.15-5.33,73.28-24.74,81.08-21.54,4.67,1.92-5.59,28-7.29,34.23Z"/>
    <path class="st0" d="M879.73,719.63l-115.73,62.26c-2.1,1.13-6.33.6-7.71-.28-1.65-1.05-2.16-6.41-.85-8.14l73.52-97.1c19.01,10.01,37.67,21.55,53.58,32.74,1.46,1.03,2.87,4.82,2.53,6.18s-2.41,2.76-5.34,4.33Z"/>
  </g>
</svg>